<svg xmlns="http://www.w3.org/2000/svg" xmlns:xlink="http://www.w3.org/1999/xlink" width="230px" height="44px" viewBox="0 0 230 44" version="1.1">
  <!-- Generator: Sketch 57 (83077) - https://sketch.com -->
  <title>Laborocity_Logo_Blue_White_RGB@3x</title>
  <desc>Created with Sketch.</desc>
  <g id="UI-Kit" stroke="none" stroke-width="1" fill="none" fill-rule="evenodd">
    <g id="Desktop-Navigation" transform="translate(-100.000000, -26.000000)" fill-rule="nonzero">
      <g id="Laborocity_Logo_Blue_White_RGB" transform="translate(100.000000, 26.000000)">
        <g id="Group" transform="translate(51.085193, 5.470899)" fill="#000000">
          <path d="M0.0970385396,30.6433228 L0.0970385396,2.71601058 C0.0970385396,1.41184127 1.15629817,0.354677249 2.46305274,0.354677249 L2.46305274,0.354677249 C3.7698073,0.354677249 4.82906694,1.41184127 4.82906694,2.71601058 L4.82906694,28.3695238 L10.4367748,28.3695238 C11.5285751,28.3695238 12.4137018,29.2528995 12.4137018,30.3425397 L12.4137018,30.3425397 C12.4137018,31.4321799 11.5285751,32.3155556 10.4367748,32.3155556 L1.77258621,32.3155556 C0.847221095,32.3155556 0.0970385396,31.5668571 0.0970385396,30.6433228 Z" id="Path"/>
          <path d="M26.8694118,30.0189418 L26.8694118,19.7647302 L20.775928,19.7647302 L20.775928,30.0189418 C20.775928,31.2872593 19.7457099,32.3155556 18.4747617,32.3155556 L18.4741785,32.3155556 C17.2033469,32.3155556 16.1730122,31.2873757 16.1730122,30.0189418 L16.1730122,4.94895238 C16.1730122,2.42209524 18.2445284,0.354677249 20.7763945,0.354677249 L26.9339097,0.354677249 C29.465426,0.354677249 31.5367089,2.42186243 31.5367089,4.94837037 L31.5367089,30.0189418 C31.5367089,31.2872593 30.5064909,32.3155556 29.2355426,32.3155556 L29.1703448,32.3155556 C27.8997465,32.3155556 26.8694118,31.2873757 26.8694118,30.0189418 Z M25.0332606,4.17173545 L22.6120791,4.17173545 C21.5979564,4.17173545 20.775928,4.99213757 20.775928,6.00425397 L20.775928,13.9850159 C20.775928,14.9971323 21.5979564,15.8175344 22.6120791,15.8175344 L25.0332606,15.8175344 C26.0473834,15.8175344 26.8694118,14.9971323 26.8694118,13.9850159 L26.8694118,6.00425397 C26.8694118,4.99213757 26.0473834,4.17173545 25.0332606,4.17173545 Z" id="Shape"/>
          <path d="M36.8509686,30.0982116 L36.8509686,2.57202116 C36.8509686,1.3473545 37.8457302,0.354677249 39.0727079,0.354677249 L47.2218458,0.354677249 C49.753712,0.354677249 51.8252282,2.42209524 51.8252282,4.94895238 L51.8252282,13.1000106 C51.8252282,15.3004762 49.7507961,16.1410159 49.2974442,16.2699894 C49.7507961,16.400127 52.2146653,17.2406667 52.2146653,19.4411323 L52.2146653,27.4633333 C52.2146653,27.4633333 52.2146653,32.3155556 47.4820538,32.3155556 L39.0727079,32.3155556 C37.8456136,32.3155556 36.8509686,31.3227619 36.8509686,30.0982116 Z M45.5823377,4.17173545 L43.0939757,4.17173545 C42.187855,4.17173545 41.4531846,4.90483598 41.4531846,5.80928042 L41.4531846,12.6923704 C41.4531846,13.5966984 42.1877383,14.3299153 43.0939757,14.3299153 L45.5823377,14.3299153 C46.4884584,14.3299153 47.2231288,13.5968148 47.2231288,12.6923704 L47.2231288,5.80928042 C47.2230122,4.90483598 46.4884584,4.17173545 45.5823377,4.17173545 Z M45.9710751,18.2113439 L43.0939757,18.2113439 C42.187855,18.2113439 41.4531846,18.9444444 41.4531846,19.8488889 L41.4531846,26.8609524 C41.4531846,27.7652804 42.1877383,28.4984974 43.0939757,28.4984974 L45.9710751,28.4984974 C46.8771957,28.4984974 47.6118661,27.7653968 47.6118661,26.8609524 L47.6118661,19.8488889 C47.6118661,18.9445608 46.8773124,18.2113439 45.9710751,18.2113439 Z" id="Shape"/>
          <path d="M61.5477434,32.7035238 C59.0193763,32.7035238 56.9449442,30.6331958 56.9449442,28.1104127 L56.9449442,4.94895238 C56.9449442,2.42488889 59.0193763,0.354677249 61.5477434,0.354677249 L67.9008519,0.354677249 C70.4286359,0.354677249 72.503068,2.42500529 72.503068,4.94895238 L72.503068,28.1104127 C72.503068,30.6331958 70.4286359,32.7035238 67.9008519,32.7035238 L61.5477434,32.7035238 L61.5477434,32.7035238 Z M66.2600609,4.17173545 L63.2531491,4.17173545 C62.3470284,4.17173545 61.612358,4.90483598 61.612358,5.80928042 L61.612358,27.249037 C61.612358,28.1533651 62.3469118,28.886582 63.2531491,28.886582 L66.2600609,28.886582 C67.1661815,28.886582 67.9008519,28.1534815 67.9008519,27.249037 L67.9008519,5.80916402 C67.9008519,4.90483598 67.1661815,4.17173545 66.2600609,4.17173545 Z" id="Shape"/>
          <path d="M88.4161055,30.5528783 L85.6620538,19.053164 L82.2907809,19.053164 L82.2907809,30.0190582 C82.2907809,31.2873757 81.2605629,32.315672 79.9897312,32.315672 L79.9897312,32.315672 C78.7188996,32.315672 77.6886815,31.2874921 77.6886815,30.0190582 L77.6886815,2.57202116 C77.6886815,1.3473545 78.6834432,0.354677249 79.9104209,0.354677249 L88.0607252,0.354677249 C90.5920081,0.354677249 92.6629412,2.42162963 92.6629412,4.94778836 L92.6629412,14.3942857 C92.6629412,16.2055026 91.6257252,17.7588889 90.1351572,18.5349418 L92.9089199,29.4546243 C93.2775963,30.9059259 92.1785649,32.315672 90.6783164,32.315672 L90.6542901,32.315672 C89.5893154,32.315672 88.6636004,31.5864127 88.4161055,30.5528783 Z M86.4198174,4.23738624 L83.9314554,4.23738624 C83.0253347,4.23738624 82.2906643,4.97048677 82.2906643,5.87493122 L82.2906643,13.6630476 C82.2906643,14.5673757 83.0252181,15.3005926 83.9314554,15.3005926 L86.4198174,15.3005926 C87.3259381,15.3005926 88.0606085,14.5674921 88.0606085,13.6630476 L88.0606085,5.87481481 C88.0606085,4.97048677 87.3259381,4.23738624 86.4198174,4.23738624 Z" id="Shape"/>
          <path d="M102.0611,32.7035238 C99.5327333,32.7035238 97.4583012,30.6331958 97.4583012,28.1104127 L97.4583012,4.94895238 C97.4583012,2.42488889 99.5327333,0.354677249 102.0611,0.354677249 L108.414092,0.354677249 C110.941876,0.354677249 113.016308,2.42500529 113.016308,4.94895238 L113.016308,28.1104127 C113.016308,30.6331958 110.941876,32.7035238 108.414092,32.7035238 L102.0611,32.7035238 L102.0611,32.7035238 Z M106.773418,4.17173545 L103.766506,4.17173545 C102.860385,4.17173545 102.125715,4.90483598 102.125715,5.80928042 L102.125715,27.249037 C102.125715,28.1533651 102.860269,28.886582 103.766506,28.886582 L106.773418,28.886582 C107.679539,28.886582 108.414209,28.1534815 108.414209,27.249037 L108.414209,5.80916402 C108.414209,4.90483598 107.679539,4.17173545 106.773418,4.17173545 Z" id="Shape"/>
          <path d="M122.545096,32.7035238 C120.01358,32.7035238 117.942297,30.6363386 117.942297,28.1098307 L117.942297,4.94895238 C117.942297,2.42209524 120.013813,0.354677249 122.54568,0.354677249 L128.898088,0.354677249 C131.404178,0.354677249 133.43569,2.38228571 133.43569,4.88330159 L133.43569,9.38003175 C133.43569,10.648582 132.405355,11.6768783 131.13429,11.6768783 L131.13429,11.6768783 C129.863225,11.6768783 128.83289,10.648582 128.83289,9.38003175 L128.83289,5.80916402 C128.83289,4.90483598 128.098337,4.17161905 127.192099,4.17161905 L124.185771,4.17161905 C123.27965,4.17161905 122.54498,4.90471958 122.54498,5.80916402 L122.54498,27.2489206 C122.54498,28.1532487 123.279533,28.8864656 124.185771,28.8864656 L127.192099,28.8864656 C128.09822,28.8864656 128.83289,28.1533651 128.83289,27.2489206 L128.83289,22.8375132 C128.83289,21.568963 129.863225,20.5406667 131.13429,20.5406667 L131.13429,20.5406667 C132.405355,20.5406667 133.43569,21.568963 133.43569,22.8375132 L133.43569,28.1102963 C133.43569,30.6365714 131.36464,32.7035238 128.833474,32.7035238 L122.545096,32.7035238 L122.545096,32.7035238 Z" id="Path"/>
          <path d="M139.945319,32.0353757 L139.945319,32.0353757 C138.674488,32.0353757 137.644153,31.0071958 137.644153,29.7387619 L137.644153,2.37099471 C137.644153,1.10267725 138.674371,0.0743809524 139.945319,0.0743809524 L139.945319,0.0743809524 C141.216151,0.0743809524 142.246486,1.10256085 142.246486,2.37099471 L142.246486,29.7387619 C142.246486,31.0071958 141.216268,32.0353757 139.945319,32.0353757 Z" id="Path"/>
          <path d="M153.170086,32.0353757 L153.104888,32.0353757 C151.834057,32.0353757 150.803722,31.0071958 150.803722,29.7387619 L150.803722,3.95720635 L147.887084,3.95720635 C146.812779,3.95720635 145.941881,3.08803175 145.941881,2.01585185 L145.941881,2.01585185 C145.941881,0.943671958 146.812779,0.0744973545 147.887084,0.0744973545 L158.387774,0.0744973545 C159.462079,0.0744973545 160.332977,0.943671958 160.332977,2.01585185 L160.332977,2.01585185 C160.332977,3.08803175 159.462079,3.95720635 158.387774,3.95720635 L155.471136,3.95720635 L155.471136,29.7387619 C155.471136,31.0071958 154.440918,32.0353757 153.170086,32.0353757 Z" id="Path"/>
          <path d="M168.305299,32.0353757 C165.774016,32.0353757 163.703083,29.9684233 163.703083,27.4422646 L163.703083,25.3719365 C163.703083,24.2997566 164.573981,23.430582 165.648286,23.430582 L166.360096,23.430582 C167.434402,23.430582 168.305299,24.2997566 168.305299,25.3719365 L168.305299,26.5807725 C168.305299,27.4851005 169.039853,28.2183175 169.94609,28.2183175 L172.564265,28.2183175 C173.470385,28.2183175 174.205056,27.4852169 174.205056,26.5807725 L174.205056,20.9918413 C174.205056,20.0875132 173.470502,19.3542963 172.564265,19.3542963 L168.305416,19.3542963 C165.774133,19.3542963 163.703083,17.2873439 163.703083,14.7611852 L163.703083,2.37099471 C163.703083,1.10267725 164.733418,0.0743809524 166.004249,0.0743809524 L166.004249,0.0743809524 C167.275081,0.0743809524 168.305299,1.10256085 168.305299,2.37099471 L168.305299,13.770836 C168.305299,14.675164 169.039853,15.408381 169.94609,15.408381 L172.564265,15.408381 C173.470385,15.408381 174.205056,14.6752804 174.205056,13.770836 L174.205056,2.37099471 C174.205056,1.10267725 175.235274,0.0743809524 176.506105,0.0743809524 L176.571303,0.0743809524 C177.842135,0.0743809524 178.87247,1.10256085 178.87247,2.37099471 L178.87247,27.4421481 C178.87247,29.9684233 176.80142,32.0353757 174.270254,32.0353757 L168.305299,32.0353757 L168.305299,32.0353757 Z" id="Path"/>
        </g>
        <g id="Group" transform="translate(6.997972, 5.820106)" fill="#FFFFFF">
          <path d="M23.641714,5.98539683 C24.8027941,5.76632804 25.7534686,4.82009524 25.9761207,3.66189418 C26.3767546,1.57713228 24.5808418,-0.222444444 22.4871653,0.169132275 C21.3244523,0.386687831 20.3722617,1.33431746 20.151359,2.49414815 C19.753641,4.58228571 21.5515365,6.3798836 23.641714,5.98539683 Z" id="Path"/>
          <path d="M10.3497667,19.3476614 C10.1850811,19.1189312 9.84824544,19.1221905 9.68332657,19.3506878 L8.32525355,21.2326772 L1.92001014,21.2326772 C1.91394523,21.2326772 1.90776369,21.2326772 1.90286511,21.2326772 C0.889792089,21.2326772 0.0630983773,21.9949947 0.0532355041,23.0085079 C0.0447870183,24.0267937 0.864716024,24.8610476 1.88572008,24.869545 L9.28024341,24.869545 C9.28572515,24.869545 9.2912069,24.869545 9.29738844,24.869545 C9.90901116,24.869545 10.5493256,24.5452487 10.9703702,23.9256402 L12.6817241,21.4009947 C12.6817241,21.4011111 11.0219219,20.2813228 10.3497667,19.3476614 Z" id="Path"/>
          <path d="M29.885071,14.7827196 C29.7909483,14.0789524 29.1647465,13.5620106 28.4586511,13.4750582 L24.0485294,12.9321587 L22.052358,8.46837037 C22.0131694,8.38095238 21.9659331,8.29982011 21.9133316,8.22357672 C21.8757759,8.118 21.8199087,8.03186243 21.7401318,7.97796825 L19.1018966,6.21133333 C18.9088692,6.03673016 18.6698884,5.90775661 18.3972008,5.84862434 L13.0477181,4.68751323 C12.6358874,4.60207407 12.2069118,4.68262434 11.8593458,4.9168254 L6.87830629,8.26583069 C6.17139452,8.74156614 5.98618154,9.6964127 6.46216024,10.3988995 C6.7676217,10.8526349 7.27170892,11.0904444 7.7795284,11.0783386 C8.06364604,11.0710053 8.34776369,10.9855661 8.6001572,10.8148042 L13.0360548,7.83165079 L16.0749239,8.49258201 L11.9765619,14.5712169 C11.0368509,16.1957249 10.7234584,17.4482116 12.4159178,18.8862434 L14.3314959,20.0577143 L18.2407961,22.7304233 L15.1924797,29.5576402 C14.8488793,30.3271746 14.9886055,31.2770159 15.6424493,31.8100212 C16.0086765,32.1085926 16.428788,32.2446667 16.8391024,32.2446667 C17.5465974,32.2446667 18.2219016,31.8385397 18.5292292,31.1506032 L22.2452688,22.8283175 C22.6085801,22.0146667 22.3377586,21.0580741 21.6014554,20.5546349 L16.9214452,17.3540423 L20.2622769,12.012582 L21.5914249,14.9821164 C21.8113945,15.4736825 22.2733773,15.8143915 22.8087221,15.8800423 L28.1704513,16.5373651 C28.2338996,16.5446984 28.2968813,16.5483069 28.3604462,16.5483069 C29.2579361,16.5481905 30.0163996,15.7649206 29.885071,14.7827196 Z" id="Path"/>
        </g>
        <path d="M21.9744473,0.111396825 C9.86177485,0.111396825 0.0424543611,9.91129101 0.0424543611,22 C0.0424543611,34.088709 9.86177485,43.8886032 21.9744473,43.8886032 C34.0871197,43.8886032 43.9064402,34.088709 43.9064402,22 C43.9064402,9.91129101 34.0871197,0.111396825 21.9744473,0.111396825 Z M35.1684229,22.3573545 L29.8066937,21.7000317 C29.2712323,21.634381 28.8093661,21.293672 28.5893966,20.8021058 L27.2602485,17.8325714 L23.9194168,23.1740317 L28.599427,26.3746243 C29.3357302,26.8781799 29.6065517,27.8346561 29.2432404,28.6483069 L25.5272008,36.9705926 C25.2198732,37.6585291 24.5446856,38.0646561 23.837074,38.0646561 C23.4267596,38.0646561 23.0066481,37.928582 22.6404209,37.6300106 C21.9865771,37.0970053 21.8468509,36.147164 22.1904513,35.3776296 L25.2387677,28.5504127 L21.3294675,25.8777037 L19.4138895,24.7062328 C17.72143,23.2683175 18.0348225,22.0157143 18.9745335,20.3912063 L23.0728955,14.3125714 L20.0340264,13.6516402 L15.5981288,16.6347937 C15.3457353,16.8055556 15.0616176,16.8909947 14.7775,16.898328 C14.2697972,16.9104339 13.7657099,16.6726243 13.4601318,16.2188889 C12.9841531,15.5164021 13.1692495,14.5614392 13.8762779,14.0858201 L18.8573174,10.7368148 C19.2048834,10.5026138 19.633859,10.4220635 20.0456897,10.5075026 L25.3951724,11.6686138 C25.66786,11.7278624 25.9068408,11.8567196 26.0998682,12.0313228 L28.7381034,13.7979577 C28.8178803,13.8518519 28.8737475,13.9379894 28.9113032,14.0435661 C28.9639047,14.1196931 29.011141,14.2009418 29.0503296,14.2883598 L31.046501,18.7521481 L35.4566227,19.2950476 C36.1627181,19.382 36.7889199,19.8989418 36.8830426,20.602709 C37.0144878,21.5849101 36.2560243,22.3681799 35.3584178,22.3681799 C35.2947363,22.3682963 35.2318712,22.3646878 35.1684229,22.3573545 Z M7.05120712,28.8286138 C7.06106998,27.8151005 7.88776369,27.0527831 8.90083671,27.0527831 C8.90573529,27.0527831 8.9118002,27.0527831 8.91798174,27.0527831 L15.3232252,27.0527831 L16.6812982,25.1707937 C16.846217,24.9422963 17.1830527,24.939037 17.3477383,25.1677672 C18.0198935,26.1014286 19.6796957,27.2212169 19.6796957,27.2212169 L17.9683418,29.7458624 C17.5472972,30.3654709 16.9069828,30.6897672 16.29536,30.6897672 C16.2892951,30.6897672 16.2836968,30.6897672 16.278215,30.6897672 L8.88369168,30.6897672 C7.86280426,30.6812698 7.04275862,29.8470159 7.05120712,28.8286138 Z M32.9740923,9.482 C32.7515568,10.6402011 31.8007657,11.5864339 30.6396856,11.8055026 C28.5495081,12.1999894 26.7514959,10.4023915 27.1493306,8.31425397 C27.3702333,7.15442328 28.3224239,6.20679365 29.4851369,5.9892381 C31.5788134,5.59754497 33.3747262,7.3972381 32.9740923,9.482 Z" id="Shape" fill="#2C7DFA"/>
      </g>
    </g>
  </g>
</svg>