<svg width="160" height="160" viewBox="0 0 160 160" fill="none" xmlns="http://www.w3.org/2000/svg">
  <g clip-path="url(#clip0)">
    <path d="M80 28.8125C84.6944 28.8125 88.5 25.0069 88.5 20.3125C88.5 15.6181 84.6944 11.8125 80 11.8125C75.3056 11.8125 71.5 15.6181 71.5 20.3125C71.5 25.0069 75.3056 28.8125 80 28.8125Z" fill="#FA6F2C"/>
    <path d="M11.875 103.688C16.3968 103.688 20.0625 100.022 20.0625 95.5C20.0625 90.9782 16.3968 87.3125 11.875 87.3125C7.35318 87.3125 3.68751 90.9782 3.68751 95.5C3.68751 100.022 7.35318 103.688 11.875 103.688Z" fill="#F8A100"/>
    <path d="M25.4375 49.0312C29.9248 49.0312 33.5625 45.3936 33.5625 40.9062C33.5625 36.4189 29.9248 32.7812 25.4375 32.7812C20.9502 32.7812 17.3125 36.4189 17.3125 40.9062C17.3125 45.3936 20.9502 49.0312 25.4375 49.0312Z" fill="#229866"/>
    <path d="M134.375 49.3437C138.862 49.3437 142.5 45.7061 142.5 41.2187C142.5 36.7314 138.862 33.0938 134.375 33.0938C129.888 33.0938 126.25 36.7314 126.25 41.2187C126.25 45.7061 129.888 49.3437 134.375 49.3437Z" fill="#13A2EE"/>
    <path d="M148.125 103.562C152.578 103.562 156.188 99.9528 156.188 95.5C156.188 91.0472 152.578 87.4375 148.125 87.4375C143.672 87.4375 140.062 91.0472 140.062 95.5C140.062 99.9528 143.672 103.562 148.125 103.562Z" fill="#D81D1D"/>
    <path d="M80.0313 40.9688C79.6194 40.9608 79.2266 40.7936 78.9352 40.5023C78.6439 40.2109 78.4768 39.8181 78.4688 39.4062V30.5625L77.3125 30.25C74.9034 29.5916 72.8151 28.0813 71.4353 25.9995C70.0556 23.9178 69.4782 21.4061 69.8104 18.9308C70.1425 16.4555 71.3617 14.1849 73.2414 12.5405C75.1212 10.8962 77.5338 9.98984 80.0313 9.98984C82.5287 9.98984 84.9413 10.8962 86.8211 12.5405C88.7008 14.1849 89.92 16.4555 90.2521 18.9308C90.5843 21.4061 90.0069 23.9178 88.6272 25.9995C87.2474 28.0813 85.1591 29.5916 82.75 30.25L81.5938 30.5625V39.4062C81.5938 39.8207 81.4291 40.2181 81.1361 40.5111C80.8431 40.8041 80.4457 40.9688 80.0313 40.9688ZM80.0313 13.125C78.6097 13.125 77.2201 13.5465 76.0381 14.3363C74.8561 15.1261 73.9349 16.2486 73.3909 17.562C72.8469 18.8753 72.7045 20.3205 72.9819 21.7147C73.2592 23.109 73.9437 24.3896 74.9489 25.3948C75.9541 26.4 77.2348 27.0846 78.629 27.3619C80.0233 27.6392 81.4684 27.4969 82.7818 26.9529C84.0951 26.4089 85.2177 25.4876 86.0074 24.3057C86.7972 23.1237 87.2188 21.7341 87.2188 20.3125C87.2188 18.4063 86.4615 16.5781 85.1136 15.2302C83.7657 13.8823 81.9375 13.125 80.0313 13.125Z" fill="#D65A29"/>
    <path d="M120.875 56.2812C120.464 56.2721 120.072 56.1041 119.781 55.8125C119.635 55.6672 119.519 55.4944 119.439 55.304C119.36 55.1136 119.319 54.9094 119.319 54.7031C119.319 54.4969 119.36 54.2926 119.439 54.1022C119.519 53.9118 119.635 53.739 119.781 53.5937L126.031 47.375L125.438 46.3125C124.648 44.9402 124.184 43.4045 124.084 41.8243C123.983 40.2441 124.247 38.662 124.856 37.2004C125.466 35.7389 126.403 34.4373 127.596 33.3965C128.79 32.3557 130.206 31.6036 131.737 31.1986C133.268 30.7935 134.871 30.7464 136.423 31.0608C137.975 31.3753 139.434 32.0429 140.686 33.0118C141.938 33.9808 142.951 35.2251 143.644 36.6483C144.338 38.0715 144.695 39.6354 144.688 41.2187C144.695 42.5735 144.431 43.916 143.91 45.1667C143.389 46.4174 142.623 47.5509 141.656 48.5C140.062 50.1076 137.98 51.142 135.735 51.4416C133.491 51.7412 131.21 51.2893 129.25 50.1562L128.219 49.5625L122 55.8125C121.698 56.1061 121.296 56.2737 120.875 56.2812ZM134.375 34.0312C133.435 34.0307 132.504 34.2153 131.635 34.5745C130.767 34.9338 129.977 35.4606 129.313 36.125C128.6 36.7814 128.028 37.575 127.631 38.458C127.233 39.341 127.018 40.2954 126.998 41.2636C126.978 42.2319 127.154 43.1942 127.516 44.0927C127.877 44.9912 128.417 45.8073 129.102 46.4921C129.786 47.177 130.603 47.7163 131.501 48.0778C132.4 48.4393 133.362 48.6155 134.33 48.5958C135.298 48.5761 136.253 48.361 137.136 47.9632C138.019 47.5655 138.812 46.9934 139.469 46.2812C140.133 45.6163 140.66 44.8269 141.019 43.9583C141.379 43.0896 141.563 42.1587 141.563 41.2187C141.567 40.2737 141.384 39.3372 141.024 38.4633C140.664 37.5894 140.135 36.7954 139.467 36.1272C138.798 35.459 138.004 34.9297 137.13 34.5699C136.257 34.2102 135.32 34.0271 134.375 34.0312Z" fill="#117BAA"/>
    <path d="M148.125 105.875C145.867 105.868 143.673 105.121 141.879 103.75C140.084 102.379 138.788 100.458 138.187 98.2812L137.875 97.125H129.031C128.617 97.125 128.219 96.9604 127.926 96.6674C127.633 96.3743 127.469 95.9769 127.469 95.5625C127.477 95.1506 127.644 94.7578 127.935 94.4665C128.227 94.1752 128.619 94.008 129.031 94H137.875L138.187 92.875C138.689 91.0167 139.701 89.3359 141.108 88.0228C142.515 86.7096 144.262 85.8165 146.15 85.4445C148.039 85.0725 149.994 85.2364 151.794 85.9177C153.594 86.599 155.168 87.7705 156.337 89.2997C157.506 90.8288 158.223 92.6546 158.408 94.5704C158.593 96.4863 158.239 98.4157 157.384 100.14C156.53 101.865 155.21 103.316 153.573 104.33C151.937 105.343 150.05 105.878 148.125 105.875ZM148.125 88.375C146.703 88.375 145.314 88.7965 144.132 89.5863C142.95 90.3761 142.029 91.4986 141.485 92.812C140.941 94.1253 140.798 95.5705 141.076 96.9647C141.353 98.3589 142.037 99.6396 143.043 100.645C144.048 101.65 145.329 102.335 146.723 102.612C148.117 102.889 149.562 102.747 150.876 102.203C152.189 101.659 153.311 100.738 154.101 99.5557C154.891 98.3737 155.312 96.984 155.312 95.5625C155.304 93.6588 154.544 91.8354 153.198 90.4893C151.852 89.1431 150.029 88.3832 148.125 88.375Z" fill="#AA1818"/>
    <path d="M11.875 105.812C9.95196 105.814 8.0667 105.279 6.43215 104.265C4.7976 103.252 3.47887 101.802 2.62491 100.079C1.77095 98.3564 1.41577 96.429 1.5995 94.5147C1.78323 92.6005 2.49854 90.7758 3.66465 89.2466C4.83075 87.7175 6.40119 86.5449 8.1986 85.8612C9.996 85.1775 11.9488 85.0101 13.8363 85.3777C15.7239 85.7453 17.4711 86.6334 18.8805 87.9417C20.2899 89.25 21.3055 90.9262 21.8125 92.7812L22.125 93.9375H30.9687C31.3831 93.9375 31.7806 94.1021 32.0736 94.3951C32.3666 94.6882 32.5312 95.0856 32.5312 95.5C32.5232 95.9119 32.3561 96.3047 32.0647 96.596C31.7734 96.8873 31.3806 97.0545 30.9687 97.0625H22.125L21.8125 98.2187C21.2121 100.396 19.9158 102.316 18.1214 103.688C16.3271 105.059 14.1333 105.805 11.875 105.812ZM11.875 88.3125C10.4534 88.3125 9.06381 88.734 7.88183 89.5238C6.69985 90.3136 5.77861 91.4361 5.23461 92.7495C4.6906 94.0628 4.54827 95.508 4.8256 96.9022C5.10293 98.2964 5.78747 99.5771 6.79266 100.582C7.79785 101.588 9.07854 102.272 10.4728 102.549C11.867 102.827 13.3122 102.684 14.6255 102.14C15.9389 101.596 17.0614 100.675 17.8512 99.4931C18.641 98.3112 19.0625 96.9215 19.0625 95.5C19.0625 93.5938 18.3052 91.7656 16.9573 90.4177C15.6094 89.0697 13.7812 88.3125 11.875 88.3125Z" fill="#D38405"/>
    <path d="M38.9375 55.9687C38.7279 55.9718 38.5199 55.9317 38.3263 55.8511C38.1328 55.7705 37.9579 55.651 37.8125 55.5L31.5937 49.2812L30.5312 49.875C29.1585 50.6541 27.6252 51.1077 26.0495 51.2008C24.4738 51.2939 22.8978 51.0241 21.4428 50.4121C19.9878 49.8001 18.6928 48.8623 17.6574 47.6709C16.622 46.4795 15.8739 45.0663 15.4707 43.5402C15.0675 42.0142 15.0201 40.4159 15.332 38.8686C15.6438 37.3213 16.3068 35.8662 17.2696 34.6154C18.2325 33.3647 19.4696 32.3517 20.8857 31.6544C22.3018 30.9572 23.8591 30.5943 25.4375 30.5937C26.7922 30.5862 28.1347 30.8506 29.3854 31.3712C30.6361 31.8919 31.7696 32.6583 32.7187 33.625C33.6798 34.5784 34.4425 35.7127 34.9627 36.9624C35.483 38.2121 35.7506 39.5525 35.75 40.9062C35.7539 42.7062 35.2794 44.4749 34.375 46.0312L33.7812 47.0625L40.0312 53.3125C40.1807 53.4528 40.2998 53.6222 40.3813 53.8103C40.4627 53.9984 40.5047 54.2013 40.5047 54.4062C40.5047 54.6112 40.4627 54.814 40.3813 55.0022C40.2998 55.1903 40.1807 55.3597 40.0312 55.5C39.8917 55.6501 39.7223 55.7694 39.534 55.8501C39.3456 55.9308 39.1424 55.9712 38.9375 55.9687ZM25.4375 33.7187C24.2558 33.7174 23.0921 34.0073 22.0492 34.563C21.0063 35.1187 20.1166 35.9229 19.4587 36.9045C18.8008 37.8861 18.395 39.0147 18.2773 40.1905C18.1597 41.3663 18.3337 42.5529 18.784 43.6454C19.2344 44.7379 19.9471 45.7025 20.8592 46.4538C21.7712 47.2052 22.8545 47.72 24.013 47.9528C25.1714 48.1857 26.3695 48.1293 27.501 47.7886C28.6325 47.448 29.6626 46.8337 30.5 46L30.6875 45.8437V45.7812C31.9408 44.4688 32.6355 42.721 32.625 40.9062C32.625 39.9624 32.4391 39.0277 32.0779 38.1557C31.7167 37.2837 31.1872 36.4913 30.5198 35.8239C29.8524 35.1565 29.0601 34.6271 28.188 34.2659C27.316 33.9047 26.3814 33.7187 25.4375 33.7187Z" fill="#1E724A"/>
    <path d="M75.6875 85.5938C79.3601 86.4481 83.2036 86.1941 86.7319 84.8639C90.2601 83.5336 93.3145 81.1868 95.5089 78.1204C97.7032 75.054 98.9389 71.4057 99.0595 67.6369C99.1801 63.8681 98.1803 60.1483 96.1866 56.9478C94.1929 53.7473 91.2947 51.21 87.8588 49.6568C84.4228 48.1036 80.6035 47.6043 76.8837 48.2221C73.164 48.8399 69.711 50.5469 66.9616 53.1273C64.2121 55.7078 62.2897 59.0456 61.4375 62.7188C60.2953 67.6417 61.1548 72.8168 63.8269 77.1063C66.4991 81.3958 70.7652 84.4487 75.6875 85.5938Z" fill="#2C7DFA"/>
    <path d="M55.375 124.656C54.81 122.461 54.5161 120.204 54.5 117.937C54.5312 113.781 55.5938 110.594 57.0625 108.125V160H78.0312H78.2222H81.7778H81.9687H102.937V108.125L103.188 108.531C104.753 111.416 105.549 114.656 105.5 117.937C105.484 120.194 105.19 122.44 104.625 124.625V153.469C114.969 139.844 119.062 128.031 119.062 117.937C119.094 108.656 115.469 101.375 111.281 96.625C109.427 94.4517 107.231 92.5942 104.781 91.125C103.742 90.4877 102.643 89.9539 101.5 89.5312C100.254 89.0431 98.9316 88.7786 97.5937 88.75H97.5312C97.15 88.6759 96.7632 88.6341 96.375 88.625H63.625C63.2368 88.6341 62.85 88.6759 62.4687 88.75H62.4062C61.0691 88.757 59.7447 89.0113 58.5 89.5C54.6875 90.9375 50.75 93.7813 47.1562 98.5C43.5625 103.219 40.9062 109.812 40.9375 117.906C40.9375 128 45.0312 139.812 55.375 153.438V124.656Z" fill="#004ABC"/>
  </g>
  <defs>
    <clipPath id="clip0">
      <rect width="160" height="160" fill="white"/>
    </clipPath>
  </defs>
</svg>
